<svg width="432" height="55" viewBox="0 0 432 55" fill="none" xmlns="http://www.w3.org/2000/svg">
<path d="M29.464 8.712C23.56 8.712 18.952 10.416 15.64 13.824C12.328 17.232 10.672 21.864 10.672 27.72C10.672 33.576 12.4 38.208 15.856 41.616C19.36 45.024 24.064 46.728 29.968 46.728C32.944 46.728 35.584 46.248 37.888 45.288V30.168H23.272V22.464H47.464V50.904C41.8 53.448 35.656 54.72 29.032 54.72C20.344 54.72 13.408 52.296 8.224 47.448C3.04 42.552 0.448 35.976 0.448 27.72C0.448 19.416 2.944 12.84 7.936 7.992C12.928 3.144 19.792 0.719999 28.528 0.719999C34.96 0.719999 40.6 2.256 45.448 5.328L42.424 12.6C38.104 10.008 33.784 8.712 29.464 8.712ZM76.3771 54L94.5931 1.44H105.393L123.681 54H112.881L109.137 41.328H90.6331L86.8171 54H76.3771ZM92.8651 33.624H106.833L99.9211 10.296H99.7771L92.8651 33.624ZM163.753 1.44V45.648H186.937V54H153.313V1.44H163.753ZM228.432 9.576V22.464H249.528V30.168H228.432V45.864H250.968V54H218.352V1.44H250.968V9.576H228.432ZM293.397 33.48V54H283.461V1.8C288.357 1.08 293.637 0.719999 299.301 0.719999C306.357 0.719999 311.637 2.04 315.141 4.68C318.645 7.272 320.397 10.944 320.397 15.696C320.397 19.152 319.461 22.176 317.589 24.768C315.765 27.36 313.269 29.16 310.101 30.168V30.312C312.405 31.656 314.397 34.512 316.077 38.88L321.837 54H311.469L305.997 39.096C305.133 36.792 304.149 35.28 303.045 34.56C301.941 33.84 300.045 33.48 297.357 33.48H293.397ZM293.397 25.848H297.645C306.189 25.848 310.461 22.8 310.461 16.704C310.461 11.28 306.501 8.568 298.581 8.568C296.613 8.568 294.885 8.712 293.397 9V25.848ZM353.667 54V1.44H364.683V54H353.667ZM409.416 9.576V22.464H430.512V30.168H409.416V45.864H431.952V54H399.336V1.44H431.952V9.576H409.416Z" fill="black"/>
</svg>
