<svg width="550" height="234" viewBox="0 0 550 234" fill="none" xmlns="http://www.w3.org/2000/svg">
<path d="M142.464 116.712C136.56 116.712 131.952 118.416 128.64 121.824C125.328 125.232 123.672 129.864 123.672 135.72C123.672 141.576 125.4 146.208 128.856 149.616C132.36 153.024 137.064 154.728 142.968 154.728C145.944 154.728 148.584 154.248 150.888 153.288V138.168H136.272V130.464H160.464V158.904C154.8 161.448 148.656 162.72 142.032 162.72C133.344 162.72 126.408 160.296 121.224 155.448C116.04 150.552 113.448 143.976 113.448 135.72C113.448 127.416 115.944 120.84 120.936 115.992C125.928 111.144 132.792 108.72 141.528 108.72C147.96 108.72 153.6 110.256 158.448 113.328L155.424 120.6C151.104 118.008 146.784 116.712 142.464 116.712ZM189.377 162L207.593 109.44H218.393L236.681 162H225.881L222.137 149.328H203.633L199.817 162H189.377ZM205.865 141.624H219.833L212.921 118.296H212.777L205.865 141.624ZM276.753 109.44V153.648H299.937V162H266.313V109.44H276.753ZM341.432 117.576V130.464H362.528V138.168H341.432V153.864H363.968V162H331.352V109.44H363.968V117.576H341.432ZM406.397 141.48V162H396.461V109.8C401.357 109.08 406.637 108.72 412.301 108.72C419.357 108.72 424.637 110.04 428.141 112.68C431.645 115.272 433.397 118.944 433.397 123.696C433.397 127.152 432.461 130.176 430.589 132.768C428.765 135.36 426.269 137.16 423.101 138.168V138.312C425.405 139.656 427.397 142.512 429.077 146.88L434.837 162H424.469L418.997 147.096C418.133 144.792 417.149 143.28 416.045 142.56C414.941 141.84 413.045 141.48 410.357 141.48H406.397ZM406.397 133.848H410.645C419.189 133.848 423.461 130.8 423.461 124.704C423.461 119.28 419.501 116.568 411.581 116.568C409.613 116.568 407.885 116.712 406.397 117V133.848ZM466.667 162V109.44H477.683V162H466.667ZM522.416 117.576V130.464H543.512V138.168H522.416V153.864H544.952V162H512.336V109.44H544.952V117.576H522.416Z" fill="#E5E5E5"/>
<path d="M73.3357 99.1578C73.6063 75.1594 63.769 63.0477 43.8236 62.8227C23.8782 62.5978 13.7701 74.4845 13.4995 98.483L12.6929 169.998L0.213696 169.858L1.01304 98.9822C1.18867 83.4099 5.00196 71.6121 12.4529 63.589C19.796 55.6713 30.3471 51.79 44.1062 51.9452C57.8654 52.1004 68.3796 56.2192 75.6489 64.3017C82.917 72.4909 86.4633 84.3716 86.2876 99.944L85.4883 170.819L72.5291 170.673L73.3357 99.1578Z" fill="#E5E5E5"/>
<path d="M75.4381 170.574L76.2356 99.8585C76.4557 80.3398 68.9396 70.4944 53.6873 70.3224C38.3282 70.1492 30.5387 79.8219 30.3185 99.3407L29.521 170.056L7.44239 169.807L8.22369 100.532C8.40654 84.3193 12.4913 72.0979 20.4779 63.8674C28.3567 55.7425 39.6023 51.7624 54.2148 51.9272C68.8272 52.092 79.9801 56.3247 87.6737 64.6253C95.366 73.0326 99.1208 85.3424 98.9379 101.555L98.1566 170.83L75.4381 170.574Z" fill="black"/>
</svg>
