<?xml version="1.0" standalone="no"?><!DOCTYPE svg PUBLIC "-//W3C//DTD SVG 1.1//EN" "http://www.w3.org/Graphics/SVG/1.1/DTD/svg11.dtd"><svg t="1657867932457" class="icon" viewBox="0 0 1024 1024" version="1.1" xmlns="http://www.w3.org/2000/svg" p-id="2512" xmlns:xlink="http://www.w3.org/1999/xlink" width="200" height="200"><defs><style type="text/css">@font-face { font-family: "feedback-iconfont"; src: url("//at.alicdn.com/t/font_1031158_u69w8yhxdu.woff2?t=1630033759944") format("woff2"), url("//at.alicdn.com/t/font_1031158_u69w8yhxdu.woff?t=1630033759944") format("woff"), url("//at.alicdn.com/t/font_1031158_u69w8yhxdu.ttf?t=1630033759944") format("truetype"); }
</style></defs><path d="M447.488 764.928l-197.632 0q-27.648-2.048-42.496-23.04t-17.92-46.592q3.072-25.6 17.92-41.984t42.496-18.432l197.632 0 0-64.512-197.632-1.024q-27.648-2.048-42.496-19.456t-17.92-44.032q3.072-25.6 17.92-41.984t42.496-18.432l147.456 0-137.216-241.664q-10.24-12.288-19.456-31.232t-8.192-41.472q5.12-28.672 20.48-46.592t57.344-23.04q24.576 2.048 44.032 16.896t31.744 32.256l155.648 284.672 171.008-286.72q12.288-17.408 31.744-30.72t44.032-16.384q15.36 1.024 28.16 4.096t22.528 10.24 16.384 20.48 9.728 34.816q0 29.696-20.48 56.32l-158.72 258.048 150.528 0q26.624 2.048 41.984 18.432t17.408 41.984q-2.048 26.624-17.92 45.056t-42.496 20.48l-195.584 1.024 0 62.464 196.608 0q26.624 2.048 41.984 20.48t17.408 44.032q-2.048 26.624-17.408 44.544t-41.984 19.968l-196.608-1.024 0 108.544q-4.096 87.04-95.232 87.04-45.056 0-70.144-21.504t-27.136-65.536l0-106.496z" p-id="2513"></path></svg>
