<?xml version="1.0" standalone="no"?>
<!DOCTYPE svg PUBLIC "-//W3C//DTD SVG 20010904//EN"
 "http://www.w3.org/TR/2001/REC-SVG-20010904/DTD/svg10.dtd">
<svg version="1.0" xmlns="http://www.w3.org/2000/svg"
 width="1212.000000pt" height="338.000000pt" viewBox="0 0 1212.000000 338.000000"
 preserveAspectRatio="xMidYMid meet">

<g transform="translate(0.000000,338.000000) scale(0.100000,-0.100000)"
fill="#000000" stroke="none">
<path d="M1620 3074 c-19 -2 -79 -14 -134 -25 -684 -142 -1156 -752 -1123
-1450 17 -359 155 -669 413 -926 131 -131 261 -221 422 -292 196 -87 359 -121
580 -121 154 0 284 19 417 61 712 222 1132 968 950 1686 -66 261 -194 483
-386 669 -150 145 -296 239 -479 310 -159 61 -282 84 -465 89 -88 2 -176 1
-195 -1z m420 -69 c165 -33 351 -111 495 -207 98 -65 257 -217 328 -312 271
-363 345 -824 202 -1253 -152 -455 -536 -795 -1015 -899 -66 -15 -127 -19
-280 -19 -170 0 -208 3 -295 24 -535 126 -924 526 -1042 1072 -25 118 -25 400
0 519 125 587 593 1018 1187 1094 68 8 346 -4 420 -19z"/>
<path d="M1760 3002 c0 -4 6 -14 12 -20 16 -16 -5 -32 -44 -32 -18 0 -28 -5
-28 -15 0 -8 9 -15 19 -15 11 0 23 -4 26 -10 10 -17 28 -11 21 7 -4 9 -1 20 6
25 19 11 60 10 53 -2 -10 -16 12 -12 29 5 8 8 22 15 31 15 9 0 15 6 12 13 -2
7 -18 11 -39 9 -22 -1 -40 3 -48 13 -13 16 -50 21 -50 7z"/>
<path d="M1797 2893 c-26 -8 -45 -18 -42 -23 3 -4 14 -6 25 -3 11 3 20 0 20
-6 0 -6 5 -11 11 -11 6 0 8 9 4 20 -9 30 14 25 25 -5 6 -16 6 -41 1 -66 -9
-41 1 -61 22 -40 17 17 14 118 -3 134 -13 12 -23 12 -63 0z"/>
<path d="M1726 2854 c-10 -25 -7 -94 4 -94 6 0 10 25 10 55 0 57 -3 66 -14 39z"/>
<path d="M1765 2821 c-3 -5 -1 -12 5 -16 5 -3 10 -1 10 6 0 7 7 4 15 -7 8 -10
15 -17 15 -14 8 37 7 40 -15 40 -13 0 -26 -4 -30 -9z"/>
<path d="M1097 2814 c-4 -4 -7 -20 -7 -35 0 -32 31 -55 68 -50 14 2 22 -3 22
-13 0 -9 -7 -16 -15 -16 -8 0 -15 -5 -15 -11 0 -6 -7 -9 -15 -5 -9 3 -15 0
-15 -8 0 -7 -7 -19 -15 -26 -16 -13 -10 -35 6 -24 5 3 17 0 25 -7 11 -9 18 -9
26 -1 7 7 20 12 31 12 14 0 17 -5 12 -21 -5 -15 -3 -20 6 -17 21 7 28 70 9 85
-13 10 -12 14 4 32 19 21 19 21 -2 21 -11 0 -24 5 -27 10 -3 6 -15 10 -26 10
-11 0 -17 5 -14 10 3 6 2 10 -2 10 -5 0 -13 10 -18 22 -11 23 -27 33 -38 22z
m89 -160 c-23 -16 -46 -18 -46 -4 0 6 7 10 15 10 9 0 18 7 22 16 4 11 9 12 17
4 8 -8 6 -15 -8 -26z"/>
<path d="M2441 2762 c-25 -38 -42 -31 -21 9 8 15 9 19 1 15 -6 -4 -18 -21 -27
-38 -14 -27 -17 -28 -32 -14 -12 10 -22 12 -32 6 -18 -11 -18 -11 60 -38 49
-16 60 -18 45 -6 l-20 16 20 -4 c13 -2 30 8 48 27 32 35 34 45 8 38 -12 -3
-20 1 -23 11 -2 10 -11 4 -27 -22z"/>
<path d="M1020 2746 c0 -7 7 -19 15 -26 19 -16 41 1 32 24 -8 20 -47 21 -47 2z"/>
<path d="M2523 2736 c4 -9 2 -16 -4 -16 -5 0 -20 -10 -33 -23 l-23 -23 27 -32
c26 -31 50 -42 50 -22 0 5 -9 15 -20 22 -27 17 -25 32 6 46 28 13 31 51 5 60
-10 3 -12 0 -8 -12z"/>
<path d="M1690 2680 c-25 -4 -4 -5 50 -2 52 2 97 6 99 8 7 6 -99 2 -149 -6z"/>
<path d="M1027 2673 c-12 -11 -8 -22 14 -34 28 -14 48 3 29 26 -13 16 -32 20
-43 8z"/>
<path d="M1873 2673 c15 -2 37 -2 50 0 12 2 0 4 -28 4 -27 0 -38 -2 -22 -4z"/>
<path d="M1502 2645 c-260 -74 -503 -271 -621 -502 -12 -24 -19 -43 -16 -43 2
0 14 19 26 43 117 229 357 418 631 496 57 17 94 30 83 30 -11 -1 -58 -11 -103
-24z"/>
<path d="M2040 2641 c52 -15 106 -31 120 -35 22 -6 23 -6 6 5 -22 13 -183 59
-206 58 -8 0 28 -13 80 -28z"/>
<path d="M2430 2646 c0 -9 7 -16 16 -16 9 0 14 5 12 12 -6 18 -28 21 -28 4z"/>
<path d="M2378 2628 c14 -14 -2 -38 -24 -38 -8 0 -14 -4 -14 -10 0 -19 38 -10
54 13 12 15 18 18 22 10 3 -7 10 -13 16 -13 6 0 4 8 -5 18 -10 10 -14 22 -10
25 3 4 -7 7 -22 7 -22 0 -26 -3 -17 -12z"/>
<path d="M1665 2619 c-224 -26 -431 -132 -591 -302 -385 -408 -336 -1059 105
-1409 89 -71 248 -150 356 -178 176 -45 381 -36 558 24 143 49 244 113 362
231 118 118 182 218 231 362 45 132 58 224 51 363 -13 248 -107 459 -281 634
-150 149 -356 249 -571 275 -100 12 -118 12 -220 0z m375 -324 l5 -240 36 3
c21 2 40 -1 43 -7 4 -5 13 -65 21 -133 22 -181 52 -339 86 -458 29 -101 82
-225 113 -264 14 -17 16 -17 38 -2 12 9 28 16 35 16 12 0 83 -96 83 -112 0 -4
-57 -46 -127 -93 -143 -96 -126 -94 -182 -17 l-19 27 -39 -19 -38 -18 -45 50
c-103 115 -195 317 -222 486 l-13 76 -35 0 -35 0 -13 -67 c-31 -162 -113 -348
-206 -468 -57 -73 -72 -81 -111 -63 -25 11 -29 10 -47 -11 -10 -14 -23 -31
-27 -39 -7 -13 -30 -3 -132 57 -68 40 -128 77 -133 82 -6 5 6 31 28 64 28 43
41 55 54 50 44 -19 51 -17 76 23 76 121 146 388 176 667 19 189 14 175 65 175
l45 0 0 233 c0 129 3 237 7 241 4 3 119 5 257 4 l251 -3 5 -240z"/>
<path d="M1550 2270 l0 -240 -44 0 c-25 0 -47 -4 -50 -9 -5 -8 48 -6 97 4 11
2 17 -1 14 -8 -2 -7 -21 -13 -43 -14 -21 -1 -42 -2 -46 -2 -5 -1 -8 -16 -8
-33 0 -26 -3 -30 -11 -18 -8 11 -9 1 -6 -37 2 -29 1 -50 -4 -48 -9 6 -23 -91
-14 -105 4 -6 3 -30 -1 -53 -6 -35 -8 -39 -15 -22 -6 13 -7 2 -4 -30 4 -36 2
-44 -4 -30 -8 16 -10 16 -10 4 -1 -9 -4 -31 -8 -49 -4 -21 -3 -31 4 -27 6 4 8
-3 5 -18 -2 -14 -9 -22 -15 -18 -6 4 -8 -3 -4 -19 5 -18 2 -28 -7 -31 -7 -3
-24 -38 -36 -78 -27 -91 -70 -177 -111 -224 -20 -23 -26 -35 -17 -35 19 0 39
23 77 90 35 62 42 61 10 -3 -47 -91 -74 -111 -119 -87 -13 7 -21 5 -31 -6 -16
-20 -4 -31 90 -79 l73 -39 32 38 31 37 36 -15 c36 -15 36 -15 71 22 20 20 50
63 68 95 18 31 36 55 41 52 12 -8 32 35 73 158 36 107 46 159 26 127 -8 -13
-10 -13 -10 2 0 9 3 24 6 33 6 13 9 14 16 3 7 -9 8 -5 5 14 -6 40 13 50 83 46
50 -2 60 0 57 12 -2 12 -17 14 -77 12 -54 -2 -71 0 -60 7 8 6 30 11 48 11 32
0 32 0 32 50 0 37 4 50 15 50 21 0 35 32 35 79 0 23 5 41 10 41 14 0 16 -8 29
-135 21 -205 83 -405 176 -563 51 -87 81 -120 95 -106 9 9 1 25 -34 68 -116
142 -208 428 -223 689 -6 113 -7 119 -30 128 -32 12 -73 12 -73 -1 0 -5 13
-10 29 -10 31 0 65 -25 56 -41 -9 -13 -37 -11 -58 5 -15 12 -21 10 -46 -12
-31 -27 -31 -52 0 -52 14 0 19 7 19 25 0 28 12 32 29 11 8 -10 5 -19 -14 -40
-13 -14 -31 -26 -40 -26 -20 0 -20 -26 1 -34 23 -9 24 -8 24 14 0 11 7 20 15
20 8 0 15 -6 15 -13 0 -18 -39 -49 -58 -45 -23 4 -43 48 -38 81 4 18 1 27 -8
27 -9 0 -15 -25 -20 -87 -8 -104 -48 -288 -82 -379 -52 -139 -160 -324 -189
-324 -27 0 -22 16 26 80 126 167 203 403 216 663 5 104 9 120 27 133 11 7 31
14 43 14 14 0 23 6 23 15 0 8 -9 15 -19 15 -27 0 -81 48 -81 71 0 28 12 23 32
-11 12 -21 25 -30 43 -30 27 0 34 17 10 27 -9 3 -22 18 -30 34 -11 20 -22 27
-39 26 -14 -1 -26 2 -28 8 -3 10 -3 10 85 20 62 7 74 19 30 30 -29 7 -83 52
-83 68 0 5 13 -5 28 -21 16 -17 42 -34 57 -38 42 -10 96 22 113 67 12 33 12
41 -3 72 -45 96 -175 75 -195 -31 -7 -32 -8 -33 -9 -9 -1 40 24 79 67 102 31
17 37 26 40 58 l3 37 -101 0 c-95 0 -101 -1 -110 -22 -8 -22 -9 -22 -9 5 l-1
27 220 0 220 0 0 -240 0 -240 44 0 44 0 7 -62 c39 -356 89 -566 176 -728 17
-32 41 -68 53 -79 l23 -21 27 21 c26 20 28 20 46 4 11 -10 20 -24 20 -30 0 -7
-41 -38 -91 -70 l-92 -58 -18 24 c-52 70 -43 65 -83 47 -20 -10 -42 -15 -51
-12 -27 11 -107 127 -152 220 -24 51 -54 136 -67 190 -36 144 -36 144 -30 84
12 -137 99 -348 189 -462 48 -61 66 -68 104 -41 24 16 25 16 65 -30 l41 -47
99 67 c55 38 101 73 103 79 2 6 -8 26 -23 43 -24 29 -28 31 -44 16 -27 -25
-47 -18 -79 29 -83 121 -151 364 -187 671 -9 77 -18 146 -20 153 -2 7 -21 12
-49 12 l-45 0 0 240 0 240 -230 0 -230 0 0 -240z m295 65 c14 -13 25 -36 25
-50 0 -38 -42 -75 -85 -75 -43 0 -85 37 -85 75 0 38 42 75 85 75 25 0 44 -8
60 -25z m-168 -857 c-3 -8 -6 -5 -6 6 -1 11 2 17 5 13 3 -3 4 -12 1 -19z m-27
-95 c-11 -17 -11 -17 -6 0 3 10 6 24 7 30 0 9 2 9 5 0 3 -7 0 -20 -6 -30z
m-301 -42 c-12 -34 -23 -60 -25 -58 -2 2 3 26 12 53 9 27 18 55 20 63 2 8 7
12 9 9 3 -2 -5 -33 -16 -67z m267 -48 c-18 -33 -21 -26 -6 13 6 15 13 24 16
21 3 -3 -1 -18 -10 -34z"/>
<path d="M1752 2324 c-12 -8 -22 -26 -22 -39 0 -25 33 -55 61 -55 22 0 49 32
49 58 0 20 -33 52 -55 52 -6 0 -21 -7 -33 -16z"/>
<path d="M1790 2131 c0 -5 -10 -11 -22 -13 -29 -4 -34 -24 -7 -31 15 -4 23 0
26 14 6 22 33 26 33 4 0 -7 -8 -18 -17 -24 -22 -12 -13 -24 11 -15 9 3 19 17
22 30 5 19 13 24 39 24 19 0 37 5 40 10 4 6 -18 10 -59 10 -36 0 -66 -4 -66
-9z"/>
<path d="M1870 2082 c0 -22 -30 -52 -52 -52 -18 0 -29 -10 -23 -21 8 -13 64
11 80 34 17 24 20 57 5 57 -5 0 -10 -8 -10 -18z"/>
<path d="M1451 1984 c0 -11 3 -14 6 -6 3 7 2 16 -1 19 -3 4 -6 -2 -5 -13z"/>
<path d="M1735 1942 c-40 -8 -62 -42 -27 -42 23 0 56 24 51 36 -2 5 -13 8 -24
6z"/>
<path d="M1553 1167 c-17 -29 -47 -70 -66 -92 l-35 -40 -37 18 -37 18 -21 -28
c-12 -15 -27 -33 -33 -42 -10 -12 -15 -12 -40 6 -16 11 -54 33 -84 48 -30 15
-64 35 -74 44 -15 13 -18 13 -14 1 2 -8 51 -41 108 -74 99 -57 104 -58 116
-40 41 61 40 61 75 41 32 -18 32 -18 61 10 31 30 123 171 116 178 -2 2 -18
-19 -35 -48z"/>
<path d="M1140 1147 c-12 -20 -11 -21 2 -9 9 7 24 9 34 6 20 -7 19 -6 -6 13
-13 10 -18 8 -30 -10z"/>
<path d="M1060 2596 c0 -19 34 -46 58 -46 36 0 25 26 -18 43 -31 12 -40 12
-40 3z"/>
<path d="M2190 2595 c0 -2 24 -16 53 -31 144 -72 297 -207 385 -341 72 -108
74 -111 52 -67 -30 64 -134 197 -203 260 -62 57 -156 121 -235 162 -44 23 -52
25 -52 17z"/>
<path d="M2874 2353 c6 -18 1 -25 -23 -38 -17 -8 -35 -14 -40 -13 -5 2 -9 -1
-10 -7 0 -5 10 -10 21 -9 31 1 100 -64 92 -88 -3 -11 1 -20 11 -24 25 -10 28
2 10 30 -15 22 -15 26 -2 26 18 0 31 30 18 43 -6 6 -15 -1 -24 -19 l-14 -27
-19 29 c-10 16 -23 32 -29 37 -11 8 11 27 33 27 18 0 15 15 -9 36 -21 19 -22
19 -15 -3z"/>
<path d="M2776 2326 c-33 -11 -61 -26 -63 -33 -4 -11 111 28 125 42 14 14 -9
11 -62 -9z"/>
<path d="M634 2285 c-12 -30 48 -105 84 -105 21 0 21 -18 1 -44 -22 -28 -20
-53 6 -62 22 -9 24 -5 36 62 6 33 21 73 35 92 32 42 20 67 -13 26 -19 -24 -26
-27 -40 -18 -10 6 -19 22 -21 35 -2 21 -8 25 -43 25 -23 1 -43 -4 -45 -11z"/>
<path d="M2803 2230 c1 -13 13 -28 29 -36 36 -19 36 -5 -1 31 -29 27 -30 27
-28 5z"/>
<path d="M2852 2228 c2 -6 10 -14 16 -16 7 -2 10 2 6 12 -7 18 -28 22 -22 4z"/>
<path d="M2777 2183 c-12 -12 -7 -58 9 -81 18 -26 46 -29 65 -6 12 15 11 16
-6 11 -24 -8 -38 0 -54 31 -10 18 -10 27 0 38 11 14 -1 21 -14 7z"/>
<path d="M2716 2070 c3 -14 10 -32 15 -40 7 -13 8 -13 8 0 0 8 -6 26 -15 40
l-15 25 7 -25z"/>
<path d="M822 2010 c-30 -86 -27 -101 3 -20 14 36 23 69 22 75 -2 5 -13 -19
-25 -55z"/>
<path d="M2775 1900 c24 -113 27 -250 10 -420 -4 -43 -4 -43 5 -10 26 99 19
364 -10 431 l-11 24 6 -25z"/>
<path d="M781 1874 c0 -11 3 -14 6 -6 3 7 2 16 -1 19 -3 4 -6 -2 -5 -13z"/>
<path d="M3000 1826 c0 -36 -15 -46 -72 -46 -15 0 -30 -5 -33 -10 -11 -18 22
-22 80 -10 51 11 56 14 51 33 -3 12 -6 32 -6 45 0 12 -4 22 -10 22 -5 0 -10
-15 -10 -34z"/>
<path d="M766 1794 c-8 -59 -7 -215 2 -274 4 -25 7 36 7 137 0 101 -1 183 -1
183 -1 0 -4 -21 -8 -46z"/>
<path d="M562 1813 c-21 -8 -33 -50 -22 -78 15 -39 56 -34 77 10 9 19 20 35
25 35 11 0 10 -38 -2 -45 -15 -9 -12 -25 5 -25 35 0 44 81 10 94 -24 9 -41 -2
-56 -37 -8 -18 -18 -31 -24 -30 -17 3 -17 34 0 53 17 19 10 31 -13 23z"/>
<path d="M2922 1674 c-28 -19 -30 -74 -4 -97 25 -23 78 -21 102 3 60 60 -27
144 -98 94z m88 -35 c19 -35 -22 -65 -68 -48 -24 9 -29 38 -10 57 20 20 66 15
78 -9z"/>
<path d="M558 1633 c-37 -6 -36 -23 2 -23 27 0 30 -3 30 -30 0 -25 -4 -30 -24
-30 -30 0 -44 -18 -21 -26 21 -9 125 5 125 17 0 5 -11 9 -24 9 -18 0 -25 7
-29 26 -2 14 0 27 7 29 38 11 47 16 41 25 -6 10 -53 11 -107 3z"/>
<path d="M2907 1480 c-27 -21 -36 -61 -19 -86 25 -38 103 -40 122 -4 36 68
-43 137 -103 90z m77 -26 c30 -30 12 -64 -34 -64 -29 0 -50 16 -50 40 0 38 55
54 84 24z"/>
<path d="M781 1454 c0 -11 3 -14 6 -6 3 7 2 16 -1 19 -3 4 -6 -2 -5 -13z"/>
<path d="M540 1441 c0 -5 9 -12 19 -16 29 -9 38 -75 10 -75 -5 0 -9 -7 -9 -16
0 -19 -1 -19 73 26 33 20 56 41 55 49 -4 22 -148 53 -148 32z m100 -40 c0 -11
-26 -22 -34 -14 -12 12 -5 23 14 23 11 0 20 -4 20 -9z"/>
<path d="M2771 1414 c0 -11 3 -14 6 -6 3 7 2 16 -1 19 -3 4 -6 -2 -5 -13z"/>
<path d="M800 1387 c0 -15 44 -134 52 -142 8 -7 9 -4 3 10 -4 11 -16 46 -27
78 -17 47 -28 70 -28 54z"/>
<path d="M2742 1333 c-11 -32 -23 -67 -27 -78 -5 -14 -5 -17 2 -10 12 11 55
137 49 142 -2 2 -13 -22 -24 -54z"/>
<path d="M2856 1312 c-10 -10 -6 -22 7 -22 24 0 37 -21 26 -42 -8 -14 -17 -18
-34 -14 -40 10 -39 -13 1 -30 48 -20 104 -29 104 -18 0 6 -13 15 -29 21 -23 8
-29 15 -24 32 7 29 17 33 47 21 20 -7 26 -6 26 4 0 15 -114 59 -124 48z"/>
<path d="M637 1268 c-36 -12 -55 -24 -50 -29 6 -6 21 -6 38 1 39 15 41 7 11
-33 -30 -39 -34 -62 -8 -54 9 3 38 11 65 18 27 8 47 19 47 27 0 9 -6 12 -16 8
-9 -3 -28 -9 -42 -13 -25 -6 -26 -5 -12 13 8 10 23 29 33 41 11 12 16 26 12
32 -8 14 -8 14 -78 -11z"/>
<path d="M870 1206 c0 -8 52 -96 60 -101 4 -3 -5 20 -22 50 -26 48 -38 64 -38
51z"/>
<path d="M2662 1155 c-17 -30 -26 -52 -21 -49 10 6 62 104 55 104 -3 0 -18
-25 -34 -55z"/>
<path d="M2780 1121 c-24 -46 -5 -90 47 -105 42 -13 91 34 78 74 -11 33 -33
24 -31 -12 1 -27 -3 -34 -22 -36 -25 -4 -62 23 -62 44 0 8 9 19 20 26 25 16
26 28 0 28 -10 0 -24 -9 -30 -19z"/>
<path d="M692 1087 c-25 -26 -27 -45 -10 -81 13 -31 40 -41 67 -26 18 9 19 14
9 35 -13 30 -32 34 -23 5 4 -14 2 -20 -8 -20 -22 0 -39 26 -33 48 7 22 50 44
71 36 15 -6 28 -35 23 -50 -2 -5 2 -11 7 -14 17 -9 17 40 1 66 -22 32 -74 33
-104 1z"/>
<path d="M947 1078 c4 -9 33 -45 63 -80 145 -169 327 -278 556 -335 96 -23
342 -23 439 1 139 33 260 87 370 164 69 48 190 168 226 222 30 45 30 45 2 11
-15 -19 -53 -61 -83 -94 -310 -334 -846 -412 -1241 -180 -120 70 -204 143
-307 268 -18 22 -30 32 -25 23z"/>
<path d="M2691 964 c-26 -34 -26 -50 -1 -64 17 -9 28 -7 55 10 30 19 36 19 41
6 8 -20 -3 -36 -26 -36 -24 0 -34 -16 -15 -24 48 -18 92 69 47 93 -14 7 -27 5
-51 -10 -38 -23 -41 -23 -41 -3 0 9 9 18 20 21 11 3 20 12 20 19 0 23 -27 16
-49 -12z"/>
<path d="M808 929 c-27 -23 -48 -45 -48 -50 0 -14 26 -10 40 6 17 20 27 19 40
-6 9 -16 8 -25 -6 -40 -9 -10 -14 -22 -11 -25 7 -7 33 9 82 49 34 29 27 47
-10 27 -22 -12 -27 -11 -40 6 -18 24 -18 31 0 38 15 5 22 36 8 36 -5 -1 -29
-19 -55 -41z"/>
<path d="M932 779 c-28 -17 -50 -35 -47 -39 3 -5 13 -6 21 -3 8 3 27 0 40 -8
19 -10 24 -18 19 -36 -3 -15 -1 -23 8 -23 13 0 59 124 49 134 -12 12 -39 4
-90 -25z m58 -13 c0 -16 -18 -31 -27 -22 -8 8 5 36 17 36 5 0 10 -6 10 -14z"/>
<path d="M2431 714 c-16 -20 -18 -31 -10 -45 11 -21 26 -23 64 -9 20 8 27 7
32 -6 7 -20 -2 -28 -35 -29 -33 0 -36 -19 -4 -23 30 -4 72 23 72 47 0 31 -25
44 -71 36 -32 -6 -40 -4 -37 6 2 7 15 16 27 19 29 7 32 24 5 28 -14 2 -29 -7
-43 -24z"/>
<path d="M1076 681 c-36 -49 -44 -71 -26 -71 10 0 80 98 80 112 0 20 -21 4
-54 -41z"/>
<path d="M2286 631 c-30 -33 -17 -56 34 -57 26 0 46 -6 48 -13 6 -19 -19 -31
-47 -24 -17 4 -22 2 -19 -8 12 -35 98 -9 98 29 0 29 -21 42 -68 42 -38 0 -43
2 -32 15 6 8 19 13 28 12 10 -1 18 3 20 8 5 19 -44 16 -62 -4z"/>
<path d="M1339 573 c-29 -73 -37 -103 -31 -106 4 -3 24 -10 45 -17 44 -14 67
-2 67 36 0 12 5 26 10 29 26 16 6 49 -43 70 -37 15 -37 15 -48 -12z m69 -30
c2 -8 -6 -13 -22 -13 -17 0 -26 5 -26 16 0 19 41 16 48 -3z m-20 -45 c19 -19
14 -28 -16 -28 -34 0 -43 7 -35 26 6 17 35 18 51 2z"/>
<path d="M2153 577 c-17 -7 -35 -15 -39 -19 -10 -11 37 -130 50 -125 6 2 28
10 49 18 43 15 51 35 10 24 -46 -12 -57 -11 -61 6 -2 11 8 20 28 28 17 6 29
15 25 20 -4 7 -15 7 -31 1 -26 -10 -44 -6 -44 10 0 4 14 13 30 19 17 5 30 15
30 20 0 13 -6 13 -47 -2z"/>
<path d="M1505 503 c-4 -21 -9 -46 -11 -55 -10 -35 50 -71 84 -50 24 16 44
122 23 122 -6 0 -13 -20 -17 -45 -4 -28 -13 -49 -24 -55 -29 -16 -42 10 -34
69 8 60 -11 73 -21 14z"/>
<path d="M2027 534 c-3 -3 -3 -21 0 -40 7 -42 -6 -44 -35 -4 -24 31 -52 40
-52 16 0 -8 5 -37 12 -65 13 -57 34 -70 25 -16 -7 43 1 44 38 5 35 -36 60 -40
51 -7 -3 12 -9 41 -13 65 -6 42 -15 57 -26 46z"/>
<path d="M1690 495 c-18 -22 -5 -44 36 -61 29 -12 34 -17 24 -29 -16 -19 -25
-19 -45 1 -11 12 -19 14 -27 6 -7 -7 -2 -16 17 -28 37 -24 79 -10 83 29 3 23
-2 30 -32 42 -20 9 -36 20 -36 25 0 14 34 12 48 -2 17 -17 28 -2 12 17 -16 19
-64 19 -80 0z"/>
<path d="M1850 461 c0 -54 7 -81 21 -81 10 0 12 73 3 108 -11 39 -24 24 -24
-27z"/>
<path d="M6700 2798 c-6 -7 -25 -37 -41 -66 -18 -31 -48 -66 -75 -85 -44 -31
-57 -63 -30 -73 14 -6 80 24 128 57 24 17 47 19 248 19 228 0 260 5 260 40 0
28 -23 31 -215 32 l-175 1 0 28 c0 15 -7 35 -16 43 -19 19 -69 21 -84 4z"/>
<path d="M10587 2792 c-10 -11 -17 -35 -17 -59 0 -28 -5 -43 -16 -47 -28 -11
-84 -6 -115 10 -70 36 -99 1 -99 -122 0 -69 3 -84 21 -100 20 -18 21 -18 34
-1 7 9 15 40 19 67 5 36 12 53 27 61 27 14 383 24 429 12 34 -9 35 -10 38 -68
3 -64 14 -85 42 -85 36 0 70 133 50 194 -16 50 -39 60 -103 46 -29 -6 -79 -10
-112 -8 -59 3 -59 3 -66 38 -14 66 -94 104 -132 62z"/>
<path d="M7932 2788 c-7 -7 -12 -26 -12 -44 0 -55 -11 -57 -215 -52 l-186 5
-39 -30 c-24 -17 -40 -37 -40 -49 0 -20 3 -21 88 -12 48 4 128 8 177 9 l90 0
3 -34 c2 -20 -2 -37 -10 -42 -18 -12 -82 -11 -94 1 -26 26 -124 3 -124 -29 0
-9 8 -28 17 -41 27 -38 24 -181 -4 -235 -27 -51 -68 -90 -116 -110 -33 -13
-36 -18 -27 -35 35 -66 150 -47 219 37 45 54 62 114 67 233 3 79 8 106 19 113
8 4 125 7 260 5 201 -2 247 -6 259 -18 12 -12 16 -54 20 -195 3 -99 6 -191 6
-204 0 -23 2 -23 61 -19 72 5 94 24 84 73 -3 16 -8 112 -12 212 -5 145 -9 186
-21 196 -10 8 -49 12 -111 12 -106 0 -120 9 -83 55 l19 24 87 -22 c107 -27
136 -27 185 -2 44 22 96 79 84 91 -5 5 -116 10 -248 11 l-240 3 -20 43 c-11
24 -27 47 -35 52 -21 14 -94 12 -108 -2z m153 -208 l0 -45 -70 -3 c-103 -4
-115 1 -115 47 0 21 3 41 7 45 4 4 46 5 93 4 l85 -3 0 -45z"/>
<path d="M9448 2773 c-58 -142 -74 -163 -116 -163 l-27 0 3 71 c4 85 -10 109
-68 109 -33 0 -39 -4 -50 -31 -12 -27 -11 -36 9 -75 14 -31 32 -50 54 -59 30
-13 27 -14 -69 -15 l-101 0 -11 38 c-6 20 -14 48 -18 62 -10 37 -34 60 -63 60
-32 0 -44 -8 -60 -38 -16 -30 3 -70 46 -97 18 -11 32 -24 33 -29 0 -5 -48 -6
-115 -3 -155 8 -163 0 -152 -166 5 -70 10 -95 25 -109 37 -37 62 0 62 94 0 51
13 74 50 86 47 17 386 34 587 30 221 -4 218 -2 218 -111 l1 -72 31 -3 c47 -5
63 25 63 118 0 51 -6 86 -18 110 -16 32 -20 35 -57 32 -100 -8 -238 -6 -241 3
-2 6 17 25 41 44 49 36 63 69 49 110 -8 22 -16 27 -52 29 -38 3 -43 0 -54 -25z"/>
<path d="M5365 2766 c-18 -13 -19 -30 -19 -262 l-1 -249 -115 -8 c-77 -5 -134
-4 -172 4 -56 11 -59 11 -98 -16 -47 -33 -72 -69 -68 -98 4 -29 36 -33 96 -13
75 26 275 49 437 50 l150 1 176 -49 c114 -31 186 -46 202 -42 32 8 103 62 131
99 17 23 18 30 7 36 -20 13 -157 23 -396 30 l-210 6 -3 119 c-2 84 1 123 10
133 11 13 35 15 154 10 144 -5 174 0 174 31 -1 43 -13 47 -172 52 l-153 5 2
45 c2 25 -2 59 -8 76 -15 48 -83 70 -124 40z"/>
<path d="M6292 2734 c-48 -33 -9 -103 69 -125 79 -21 159 -11 159 20 0 4 -21
23 -47 42 -116 84 -140 92 -181 63z"/>
<path d="M9980 2708 c-32 -24 -45 -41 -45 -59 0 -22 4 -24 42 -22 l42 2 7 -46
c4 -26 4 -151 0 -278 -8 -261 -8 -263 59 -251 40 8 44 17 47 115 l3 64 47 12
c90 23 129 65 131 144 2 42 -2 54 -27 80 -15 16 -40 32 -54 36 l-25 6 46 47
c59 61 82 111 62 139 -12 17 -30 21 -102 27 -48 4 -111 9 -138 13 -46 5 -54 2
-95 -29z m203 -80 c13 -20 -7 -64 -35 -79 -16 -9 -18 -5 -18 39 0 27 3 52 7
56 11 11 35 3 46 -16z m27 -188 c24 -24 25 -38 5 -64 -15 -20 -65 -56 -77 -56
-5 0 -8 32 -8 70 l0 70 30 0 c17 0 39 -9 50 -20z"/>
<path d="M6653 2595 c-20 -14 -23 -25 -23 -76 0 -86 -10 -99 -70 -97 -57 3
-86 -17 -96 -66 -5 -28 -15 -36 -87 -71 -117 -56 -137 -71 -137 -106 0 -16 9
-38 21 -50 27 -27 70 -20 119 19 45 36 100 117 100 147 0 19 8 25 51 35 28 7
54 9 59 4 4 -5 0 -40 -10 -78 -10 -38 -16 -75 -13 -83 11 -27 41 -34 79 -18
27 11 75 15 186 15 161 0 176 -6 106 -44 -32 -18 -40 -19 -77 -6 -49 16 -59
10 -35 -22 31 -41 65 -61 114 -66 75 -7 136 37 154 111 6 24 11 27 50 27 46 0
72 19 62 45 -3 10 -19 15 -43 15 -57 0 -66 10 -58 59 l7 42 41 -8 c23 -4 62
-8 86 -8 37 1 48 6 77 38 56 61 51 66 -83 69 l-118 3 3 67 c3 58 0 70 -18 88
-18 18 -29 21 -58 16 -21 -4 -46 -6 -57 -5 -11 0 -76 2 -145 4 -69 1 -134 6
-145 9 -12 4 -29 0 -42 -9z m355 -122 l3 -53 -152 0 -152 0 6 45 c2 26 8 49
12 53 10 10 141 18 215 12 l65 -5 3 -52z m-2 -126 c3 -8 1 -36 -3 -63 l-8 -49
-65 -2 c-59 -2 -62 0 -22 13 9 3 2 18 -23 49 -40 48 -77 59 -94 27 -13 -24 4
-51 42 -67 l32 -13 -35 -7 c-19 -3 -58 -5 -85 -3 l-50 3 -3 46 c-5 75 5 79
169 79 108 0 141 -3 145 -13z"/>
<path d="M6799 2498 c-25 -46 77 -90 126 -55 17 13 15 16 -28 45 -54 38 -82
40 -98 10z"/>
<path d="M10478 2546 c-19 -44 -4 -59 50 -51 26 4 97 8 158 10 120 2 134 6
134 34 0 26 -26 31 -188 31 -141 0 -143 0 -154 -24z"/>
<path d="M6166 2508 c-23 -32 -20 -65 7 -83 34 -22 172 -39 227 -28 34 6 45
13 45 27 0 15 -25 29 -109 62 -123 50 -148 53 -170 22z"/>
<path d="M9069 2487 c-44 -30 -57 -52 -43 -74 15 -23 54 -21 128 6 67 25 180
39 189 23 11 -16 -23 -36 -72 -42 -45 -5 -46 -6 -43 -37 l3 -33 -175 0 -175 0
-20 -26 c-23 -29 -28 -69 -10 -79 6 -4 38 -2 72 4 93 17 300 30 312 20 15 -15
-17 -90 -48 -113 -33 -25 -127 -28 -190 -7 -54 18 -66 2 -28 -37 43 -42 120
-67 206 -65 139 2 205 62 205 184 l0 49 136 0 c140 0 174 8 174 39 0 28 -18
31 -166 31 -127 0 -174 8 -174 30 0 12 65 30 107 30 40 0 70 38 54 68 -23 44
-35 46 -227 48 -173 2 -186 1 -215 -19z"/>
<path d="M10410 2449 c-25 -15 -31 -25 -28 -47 3 -23 8 -27 33 -26 17 0 45 4
63 8 29 7 32 6 32 -16 0 -42 -48 -124 -91 -153 -42 -30 -123 -55 -176 -55 -39
0 -41 -10 -9 -47 23 -26 30 -28 94 -27 131 1 218 77 265 230 26 86 53 104 40
27 -25 -149 10 -203 172 -268 115 -46 195 -44 260 7 30 23 65 88 65 119 0 18
-4 20 -27 14 -54 -14 -211 -17 -268 -5 -77 16 -105 44 -105 104 0 68 6 76 55
76 79 0 122 32 89 65 -13 13 -48 15 -224 14 -186 -1 -212 -3 -240 -20z"/>
<path d="M7859 2434 c-13 -14 -41 -35 -61 -47 -21 -11 -38 -27 -38 -35 0 -31
158 17 197 60 17 19 17 20 -2 34 -29 22 -69 17 -96 -12z"/>
<path d="M8054 2445 c-18 -15 -18 -16 16 -45 53 -46 170 -75 170 -42 0 5 -11
14 -24 20 -14 6 -43 27 -64 47 -43 38 -68 43 -98 20z"/>
<path d="M7820 2317 c-30 -15 -36 -59 -18 -132 11 -40 18 -51 41 -59 20 -7 34
-7 47 2 13 8 66 12 154 12 74 0 137 3 139 8 3 4 8 36 12 72 10 99 4 104 -131
100 -146 -5 -175 -4 -199 4 -11 3 -31 0 -45 -7z m266 -64 c12 -47 -4 -58 -98
-61 l-86 -3 -6 36 c-4 19 -4 40 -1 45 3 6 46 10 95 10 89 0 90 0 96 -27z"/>
<path d="M11023 1421 c-22 -16 -44 -35 -48 -41 -14 -22 -119 -93 -179 -120
-67 -31 -116 -45 -189 -55 -35 -5 -52 -13 -63 -31 -15 -22 -15 -26 0 -48 23
-36 62 -40 157 -16 88 23 119 23 254 0 40 -7 121 -10 190 -8 112 4 125 7 196
40 l75 35 74 -54 c75 -54 116 -66 127 -37 11 29 -15 62 -129 164 -124 112
-156 133 -196 128 -42 -5 -39 -37 7 -93 46 -55 43 -68 -18 -85 -98 -26 -365
-15 -366 15 0 6 44 33 97 60 141 73 173 109 130 148 -35 32 -73 31 -119 -2z"/>
<path d="M7240 1414 c-6 -14 -10 -38 -10 -53 l0 -28 -90 -7 c-50 -4 -120 -4
-155 -1 -65 7 -65 7 -101 -29 -27 -27 -35 -42 -32 -63 3 -26 6 -28 43 -27 22
0 65 7 95 16 30 9 80 19 110 22 l55 7 -51 -48 c-28 -27 -83 -64 -123 -83 -73
-35 -84 -52 -49 -74 22 -14 127 20 225 74 63 34 68 39 68 70 0 27 -6 37 -25
47 -20 10 25 13 252 15 291 3 316 7 292 46 -10 15 -35 18 -190 23 -98 3 -180
6 -181 7 -2 1 -3 14 -3 28 0 38 -16 61 -51 73 -49 17 -69 14 -79 -15z"/>
<path d="M8310 1427 c-48 -24 -55 -57 -37 -184 20 -138 29 -158 65 -148 15 4
49 9 77 12 44 5 48 4 36 -11 -33 -39 -161 -79 -323 -101 -55 -7 -62 -25 -23
-51 47 -30 185 -3 362 73 79 33 117 39 116 18 0 -23 -169 -95 -285 -122 -118
-27 -139 -41 -99 -63 56 -30 221 12 396 100 93 46 145 61 145 42 0 -11 -125
-82 -212 -122 -37 -16 -111 -42 -165 -56 -84 -22 -122 -27 -258 -29 -131 -2
-159 -4 -157 -16 8 -37 102 -69 203 -69 174 0 369 65 609 203 90 52 96 54 123
40 15 -7 27 -20 27 -27 0 -22 -77 -93 -126 -116 -53 -26 -145 -36 -196 -22
-36 10 -38 9 -38 -12 0 -49 83 -96 168 -96 88 0 158 40 287 166 66 64 105 110
105 122 0 28 -37 52 -80 52 -43 0 -211 41 -305 74 -68 24 -69 25 -30 25 22 0
59 -4 82 -9 51 -12 90 0 102 32 13 33 33 230 26 250 -10 25 -61 43 -88 31 -34
-16 -436 -4 -462 13 -16 11 -25 11 -45 1z m424 -83 c40 -6 46 -10 46 -30 l0
-24 -195 0 -195 0 0 30 0 30 149 0 c81 0 169 -3 195 -6z m41 -116 c4 -3 4 -16
0 -27 -6 -21 -11 -21 -193 -19 -184 3 -187 3 -190 25 -3 20 2 22 50 26 81 6
325 3 333 -5z"/>
<path d="M9398 1349 c-31 -30 -37 -73 -12 -83 9 -3 40 1 71 10 30 9 57 13 60
10 4 -3 1 -6 -5 -6 -6 0 -19 -14 -28 -32 -15 -28 -15 -34 0 -64 16 -35 67 -66
123 -77 18 -4 35 -2 38 3 3 4 -6 30 -20 56 -14 26 -25 53 -25 60 0 7 -12 26
-26 44 l-26 31 93 -3 94 -3 3 -104 c2 -60 -1 -108 -7 -114 -6 -6 -98 -11 -226
-12 -199 -1 -217 -3 -242 -21 -27 -21 -49 -75 -39 -100 8 -20 35 -17 107 13
59 24 78 27 232 31 136 4 167 2 168 -9 0 -8 1 -78 2 -157 2 -157 6 -167 62
-157 17 3 41 17 54 32 23 26 23 32 20 157 l-4 131 82 -2 c45 -1 131 -14 192
-28 130 -30 144 -30 198 -6 40 19 103 94 90 107 -3 3 -132 8 -286 11 l-281 6
0 109 0 108 174 0 c183 0 202 5 194 47 -5 27 -61 31 -453 35 l-350 3 -27 -26z"/>
<path d="M4706 1301 l-69 -17 -17 -85 c-28 -136 -90 -257 -207 -402 -40 -49
-58 -79 -51 -82 104 -37 101 -37 120 -13 54 70 150 290 178 407 l13 54 23 -94
c27 -106 115 -293 166 -351 32 -37 34 -38 74 -27 42 11 42 11 94 132 100 234
169 474 141 491 -19 12 -93 -17 -129 -51 l-34 -33 7 -67 c15 -143 11 -192 -25
-277 l-33 -79 -19 24 c-34 44 -98 184 -117 260 -10 40 -22 109 -26 152 -4 42
-10 76 -14 76 -3 -1 -37 -9 -75 -18z"/>
<path d="M5670 1304 c-207 -31 -198 -28 -228 -79 l-21 -35 62 6 62 5 -46 -25
c-42 -23 -50 -33 -77 -99 -44 -105 -121 -382 -110 -392 2 -2 40 4 86 13 l82
16 0 50 c0 27 5 78 11 112 11 62 12 64 47 70 19 4 85 4 146 1 l111 -5 28 39
c39 57 36 61 -35 55 -35 -3 -97 -8 -137 -11 -41 -4 -84 -13 -95 -21 -49 -34
-47 -15 8 101 26 56 53 98 66 105 17 9 57 10 144 6 67 -4 128 -9 136 -11 10
-3 25 12 43 44 15 27 27 52 27 55 0 6 -267 6 -310 0z"/>
<path d="M6100 1255 c-13 -24 -22 -46 -19 -49 2 -3 49 -9 103 -15 54 -5 100
-11 102 -13 1 -2 -15 -49 -37 -103 -47 -116 -86 -253 -95 -336 l-7 -59 34 7
c19 3 55 11 82 17 l47 11 4 95 c4 98 35 219 78 304 20 40 15 55 -19 56 -7 0
-13 5 -13 10 0 6 21 10 46 10 25 0 76 5 113 11 67 11 69 12 90 56 l22 45 -68
-9 c-84 -10 -343 -11 -398 -1 -40 7 -41 7 -65 -37z"/>
<path d="M10048 1263 c-9 -10 -20 -27 -26 -39 -6 -12 -27 -40 -47 -63 -47 -57
-45 -65 10 -58 55 8 121 40 135 66 14 27 13 84 -2 99 -17 17 -53 15 -70 -5z"/>
<path d="M7365 1210 c-15 -29 -14 -31 7 -53 29 -29 186 -87 234 -87 46 0 48
32 2 51 -17 7 -64 37 -105 66 -86 62 -116 67 -138 23z"/>
<path d="M7364 1112 c-6 -4 -23 -26 -38 -49 -14 -24 -30 -43 -36 -43 -5 0 -31
13 -57 28 -68 40 -75 42 -112 26 -27 -11 -32 -18 -29 -41 3 -24 9 -30 51 -40
98 -24 95 -44 -15 -99 -76 -38 -192 -74 -323 -99 -50 -10 -94 -21 -99 -26 -15
-13 23 -60 62 -76 65 -27 144 -13 269 46 59 29 143 75 186 103 l78 51 35 -19
c19 -10 85 -57 147 -102 166 -124 195 -133 282 -83 48 27 132 108 122 117 -2
2 -40 11 -83 19 -144 28 -390 114 -408 143 -3 6 5 30 19 54 30 52 30 53 5 78
-21 21 -38 25 -56 12z"/>
<path d="M10730 1040 c-21 -21 -22 -29 -16 -99 17 -197 18 -204 43 -229 26
-26 63 -24 95 5 26 23 398 14 445 -11 45 -23 76 -20 106 9 26 27 30 45 43 212
6 79 6 82 -20 108 -23 23 -32 26 -64 20 -43 -8 -520 -7 -574 1 -29 5 -41 1
-58 -16z m549 -77 l53 -6 -5 -62 c-2 -35 -8 -68 -11 -74 -8 -13 -472 -16 -479
-3 -3 4 -7 36 -8 72 -4 61 -3 64 21 71 32 9 359 11 429 2z"/>
</g>
</svg>
