<?xml version="1.0" standalone="no"?>
<!DOCTYPE svg PUBLIC "-//W3C//DTD SVG 20010904//EN"
 "http://www.w3.org/TR/2001/REC-SVG-20010904/DTD/svg10.dtd">
<svg version="1.0" xmlns="http://www.w3.org/2000/svg"
 width="850.000000pt" height="358.000000pt" viewBox="140 240 780.000000 258.000000"
 preserveAspectRatio="xMidYMid meet">

<g transform="translate(0.000000,758.000000) scale(0.100000,-0.100000)"
fill="#000000" stroke="none">
<path d="M2275 4829 c-218 -43 -427 -158 -573 -314 -116 -124 -209 -290 -254
-455 -20 -74 -23 -108 -23 -265 0 -212 16 -286 94 -450 108 -226 276 -392 505
-501 156 -73 232 -89 441 -89 157 0 191 3 265 23 162 44 329 136 450 248 132
123 253 323 300 499 31 114 39 351 15 466 -44 218 -135 389 -290 545 -94 95
-173 150 -299 210 -148 69 -224 86 -416 90 -91 1 -187 -2 -215 -7z m437 -47
c172 -46 322 -129 450 -250 136 -129 233 -292 285 -478 25 -90 28 -114 27
-259 -1 -139 -4 -173 -26 -255 -46 -173 -124 -313 -246 -442 -328 -348 -849
-419 -1264 -172 -107 64 -267 221 -332 326 -99 160 -145 310 -153 498 -13 298
83 545 292 756 152 153 309 240 515 285 114 25 339 21 452 -9z"/>
<path d="M2459 4777 c14 -17 4 -27 -26 -27 -12 0 -23 -4 -23 -9 0 -10 50 -25
58 -16 3 3 -3 5 -14 5 -16 0 -17 2 -4 10 22 14 63 13 55 -2 -4 -7 0 -5 8 5 8
9 22 17 31 17 10 0 14 4 11 10 -3 5 -19 7 -35 3 -19 -3 -30 -1 -30 6 0 6 -10
11 -21 11 -17 0 -19 -3 -10 -13z"/>
<path d="M2480 4696 c0 -9 5 -16 11 -16 5 0 7 5 4 10 -3 6 1 10 11 10 14 0 16
-8 12 -50 -4 -35 -2 -50 6 -47 6 2 11 26 11 53 0 46 -2 49 -27 52 -20 2 -28
-1 -28 -12z"/>
<path d="M2455 4690 c3 -5 8 -10 11 -10 2 0 4 5 4 10 0 6 -5 10 -11 10 -5 0
-7 -4 -4 -10z"/>
<path d="M2433 4650 c0 -25 2 -35 4 -22 2 12 2 32 0 45 -2 12 -4 2 -4 -23z"/>
<path d="M2461 4643 c0 -12 2 -14 6 -4 5 11 7 11 15 0 8 -12 9 -12 6 0 -6 22
-28 25 -27 4z"/>
<path d="M1960 4620 c0 -31 17 -39 37 -19 8 8 7 16 -5 30 -23 27 -32 24 -32
-11z"/>
<path d="M2935 4619 c-4 -6 -5 -12 -2 -15 2 -3 7 2 10 11 7 17 1 20 -8 4z"/>
<path d="M2952 4597 c-12 -18 -22 -26 -22 -19 0 7 -5 10 -11 6 -6 -3 -15 -1
-19 6 -5 7 -13 9 -21 5 -9 -6 0 -13 27 -22 23 -8 40 -10 42 -4 2 5 9 8 15 6 7
-3 21 8 31 23 11 15 16 24 11 20 -4 -4 -13 -4 -19 1 -7 6 -19 -1 -34 -22z"/>
<path d="M1906 4601 c-3 -5 1 -14 8 -20 16 -13 32 2 21 19 -8 12 -22 13 -29 1z"/>
<path d="M2005 4590 c-4 -6 -3 -9 2 -8 4 2 8 -1 8 -7 0 -5 -3 -9 -7 -7 -5 1
-8 -4 -9 -10 0 -7 -4 -4 -9 7 -8 18 -9 18 -9 -5 -1 -15 -6 -31 -13 -38 -9 -9
-9 -12 0 -12 7 0 15 7 18 15 4 8 12 15 20 15 8 0 14 5 14 10 0 6 5 10 10 10
21 0 9 -30 -17 -45 -16 -9 -19 -13 -8 -10 35 11 40 10 37 -9 -5 -27 15 -10 20
19 3 13 0 26 -6 28 -8 3 -7 10 1 25 11 18 10 20 -1 16 -8 -3 -17 -1 -21 5 -8
14 -22 14 -30 1z"/>
<path d="M3027 4584 c5 -13 3 -16 -10 -11 -28 11 -38 -24 -16 -52 11 -13 22
-21 26 -17 4 3 -2 12 -12 20 -18 13 -18 14 3 27 23 15 29 34 12 44 -6 4 -7 -1
-3 -11z"/>
<path d="M1917 4543 c-4 -3 -7 -10 -7 -14 0 -11 29 -19 35 -10 6 11 -20 33
-28 24z"/>
<path d="M2378 4543 c6 -2 18 -2 25 0 6 3 1 5 -13 5 -14 0 -19 -2 -12 -5z"/>
<path d="M2548 4543 c7 -3 16 -2 19 1 4 3 -2 6 -13 5 -11 0 -14 -3 -6 -6z"/>
<path d="M2956 4527 c3 -10 9 -15 12 -12 3 3 0 11 -7 18 -10 9 -11 8 -5 -6z"/>
<path d="M2916 4505 c4 -10 -2 -18 -17 -24 l-24 -10 23 0 c12 -1 25 6 28 14 5
13 9 13 22 3 12 -10 14 -10 8 -1 -4 7 -16 18 -26 23 -16 8 -18 8 -14 -5z"/>
<path d="M2365 4499 c-291 -45 -526 -262 -596 -549 -19 -79 -17 -250 5 -335
22 -86 81 -201 141 -277 89 -114 246 -211 390 -243 116 -26 295 -17 395 20
199 72 358 225 433 415 134 340 -20 740 -348 900 -130 64 -289 90 -420 69z
m295 -229 l0 -180 35 0 c38 0 34 12 55 -155 24 -194 72 -377 122 -461 21 -35
36 -42 55 -23 6 6 15 9 20 6 14 -8 67 -87 62 -91 -21 -17 -190 -126 -196 -126
-5 0 -17 14 -26 30 -20 33 -28 36 -60 19 -19 -11 -26 -7 -65 36 -60 67 -129
214 -151 322 -16 79 -20 88 -41 88 -20 0 -25 -10 -46 -93 -28 -112 -77 -218
-140 -301 -48 -64 -54 -67 -84 -51 -15 8 -23 4 -42 -20 l-23 -29 -97 57 c-54
31 -98 60 -98 65 0 17 54 88 64 83 6 -2 18 -7 27 -10 47 -20 141 289 164 539
10 111 11 115 45 115 l30 0 0 174 0 175 38 4 c20 2 108 4 195 5 l157 2 0 -180z"/>
<path d="M2302 4238 l3 -183 2 178 3 177 160 0 160 0 0 -180 0 -180 34 0 c24
0 36 -5 39 -17 4 -14 5 -12 6 5 1 19 -4 22 -34 22 l-35 0 0 180 0 180 -170 0
-170 0 2 -182z"/>
<path d="M2320 4220 l0 -180 -38 0 -38 0 -12 -106 c-26 -213 -78 -412 -131
-495 -36 -58 -43 -62 -76 -47 -19 8 -22 14 -13 20 10 7 9 9 -2 5 -8 -2 -15
-12 -15 -23 0 -10 -6 -18 -12 -17 -18 4 -16 -14 3 -21 8 -3 12 -2 9 4 -10 16
3 12 66 -22 l60 -33 22 28 c13 15 27 27 32 27 16 1 77 90 117 170 49 100 77
210 91 358 l11 123 28 6 c35 7 36 21 3 29 -24 6 -45 31 -45 53 0 18 18 12 25
-8 3 -10 15 -21 25 -24 24 -6 26 6 5 23 -8 7 -15 19 -15 26 0 9 -11 14 -31 14
-17 0 -28 4 -24 10 3 6 28 10 56 10 27 0 49 5 49 10 0 6 -7 10 -15 10 -30 0
-65 47 -65 85 0 35 35 85 60 85 5 0 10 14 10 30 l0 30 -70 0 -70 0 0 -180z"/>
<path d="M2425 4305 c-14 -13 -25 -36 -25 -50 0 -31 41 -75 70 -75 79 0 105
106 34 139 -37 16 -52 14 -79 -14z m101 -20 c35 -54 -33 -116 -85 -77 -15 10
-27 29 -29 41 -9 57 82 85 114 36z"/>
<path d="M2439 4274 c-9 -11 -10 -20 -2 -32 14 -24 54 -27 70 -7 28 40 -36 77
-68 39z"/>
<path d="M2480 4141 c0 -5 6 -11 13 -14 9 -3 9 -7 -2 -20 -10 -13 -10 -17 -1
-17 6 0 14 9 17 20 4 14 14 20 34 20 16 0 29 5 29 10 0 6 -20 10 -45 10 -25 0
-45 -4 -45 -9z"/>
<path d="M2440 4120 c0 -5 7 -10 15 -10 8 0 15 5 15 10 0 6 -7 10 -15 10 -8 0
-15 -4 -15 -10z"/>
<path d="M2532 4090 c-7 -12 -23 -25 -35 -30 -21 -9 -22 -9 -1 -9 23 -1 58 32
52 49 -1 5 -9 1 -16 -10z"/>
<path d="M2508 4008 c21 -7 32 -17 32 -29 0 -23 -9 -24 -38 -3 -12 8 -22 11
-22 5 0 -5 -9 -12 -19 -16 -12 -4 -18 -12 -14 -21 8 -21 33 -17 33 6 0 23 1
24 35 8 21 -9 25 -18 25 -53 0 -61 27 -209 52 -285 37 -115 128 -277 148 -265
5 3 -6 27 -24 53 -94 131 -166 366 -166 538 0 56 -15 75 -57 73 -10 -1 -4 -6
15 -11z"/>
<path d="M2222 3990 c0 -14 2 -19 5 -12 2 6 2 18 0 25 -3 6 -5 1 -5 -13z"/>
<path d="M2717 3927 c10 -167 71 -390 134 -489 31 -48 43 -56 54 -38 3 6 1 10
-6 10 -28 0 -80 98 -114 215 -21 73 -50 224 -68 350 -3 17 -2 -5 0 -48z"/>
<path d="M2417 3993 c-12 -11 -8 -23 7 -23 7 0 19 7 26 15 10 12 9 15 -7 15
-11 0 -23 -3 -26 -7z"/>
<path d="M2410 3905 c0 -69 -35 -233 -68 -319 -39 -100 -108 -215 -135 -226
-20 -7 -20 -9 -4 -15 12 -5 25 -1 40 13 12 11 25 20 29 19 3 -1 10 2 15 7 5 5
2 6 -6 1 -9 -5 -12 -3 -9 6 3 8 10 14 15 14 6 0 15 4 20 9 5 5 3 6 -4 2 -18
-10 -18 -9 26 85 35 75 81 231 81 273 0 11 9 16 30 16 27 0 30 3 30 34 0 25
-5 35 -20 39 -16 4 -20 14 -20 46 0 23 -4 41 -10 41 -5 0 -10 -20 -10 -45z"/>
<path d="M2490 3932 c-10 -11 -11 -17 -2 -20 16 -5 15 -29 0 -35 -10 -4 -10
-6 0 -6 16 -1 24 20 20 52 -3 22 -4 23 -18 9z"/>
<path d="M2211 3914 c0 -11 3 -14 6 -6 3 7 2 16 -1 19 -3 4 -6 -2 -5 -13z"/>
<path d="M2450 3901 c0 -6 5 -13 10 -16 6 -3 10 1 10 9 0 9 -4 16 -10 16 -5 0
-10 -4 -10 -9z"/>
<path d="M2420 3770 c0 -5 23 -10 50 -10 28 0 50 5 50 10 0 6 -22 10 -50 10
-27 0 -50 -4 -50 -10z"/>
<path d="M2521 3714 c0 -11 3 -14 6 -6 3 7 2 16 -1 19 -3 4 -6 -2 -5 -13z"/>
<path d="M2531 3664 c0 -11 3 -14 6 -6 3 7 2 16 -1 19 -3 4 -6 -2 -5 -13z"/>
<path d="M2540 3627 c0 -38 63 -178 111 -246 27 -39 52 -71 55 -71 3 0 18 7
34 15 27 14 30 14 39 -2 35 -61 33 -60 120 -3 84 54 89 65 47 99 -11 9 -16 9
-22 -1 -4 -7 -4 -10 1 -6 10 10 35 -10 35 -27 0 -7 -30 -32 -66 -56 l-66 -43
-27 32 c-25 31 -28 32 -59 20 -31 -12 -34 -11 -57 17 -52 63 -89 129 -116 208
-16 45 -29 74 -29 64z"/>
<path d="M2110 3499 c-7 -17 -24 -47 -38 -67 -15 -22 -18 -31 -7 -22 18 15 69
109 62 116 -2 3 -10 -9 -17 -27z"/>
<path d="M2243 3339 c-20 -20 -22 -21 -45 -5 -22 16 -24 15 -49 -15 -23 -28
-28 -30 -50 -20 -23 11 -23 11 -5 -3 27 -22 37 -20 61 10 19 24 24 25 44 14
21 -11 27 -9 50 14 14 14 23 26 20 26 -2 0 -14 -10 -26 -21z"/>
<path d="M2010 3346 c0 -3 14 -12 30 -21 17 -9 30 -13 30 -11 0 3 -13 12 -30
21 -16 9 -30 13 -30 11z"/>
<path d="M1930 4494 c0 -14 33 -44 48 -44 7 0 12 7 12 15 0 8 -8 15 -18 15
-10 0 -23 5 -30 12 -7 7 -12 8 -12 2z"/>
<path d="M2009 4393 c-13 -16 -12 -17 4 -4 9 7 17 15 17 17 0 8 -8 3 -21 -13z"/>
<path d="M2945 4380 c10 -11 20 -20 23 -20 3 0 -3 9 -13 20 -10 11 -20 20 -23
20 -3 0 3 -9 13 -20z"/>
<path d="M1935 4328 l-40 -43 43 40 c39 36 47 45 39 45 -2 0 -21 -19 -42 -42z"/>
<path d="M3286 4296 c3 -9 11 -16 16 -16 13 0 5 23 -10 28 -7 2 -10 -2 -6 -12z"/>
<path d="M3203 4282 c-24 -9 -43 -19 -43 -24 0 -6 87 27 99 38 9 8 -16 2 -56
-14z"/>
<path d="M3055 4270 c10 -11 20 -20 23 -20 3 0 -3 9 -13 20 -10 11 -20 20 -23
20 -3 0 3 -9 13 -20z"/>
<path d="M3240 4271 c-18 -5 -21 -9 -12 -15 7 -4 16 -5 19 -2 4 3 15 -1 25
-11 11 -10 18 -12 18 -4 0 6 -7 14 -16 18 -13 5 -13 7 -2 14 15 10 4 10 -32 0z"/>
<path d="M1648 4262 c-49 -6 -29 -61 30 -83 23 -9 24 -10 7 -35 -13 -20 -14
-28 -4 -40 15 -19 29 -2 29 36 0 14 9 40 20 58 26 42 25 64 0 33 -16 -19 -23
-21 -34 -11 -8 6 -16 19 -18 28 -2 12 -11 16 -30 14z"/>
<path d="M1869 4253 c-13 -16 -12 -17 4 -4 9 7 17 15 17 17 0 8 -8 3 -21 -13z"/>
<path d="M3325 4233 c-4 -13 -11 -21 -15 -18 -5 3 -3 -6 3 -20 7 -14 15 -25
20 -25 11 0 8 18 -4 26 -8 5 -8 9 1 14 7 4 10 16 7 26 -4 17 -6 17 -12 -3z"/>
<path d="M3233 4212 c0 -12 10 -23 20 -26 18 -4 18 -4 1 17 -11 12 -20 24 -21
26 -1 2 -1 -6 0 -17z"/>
<path d="M1830 4200 c-6 -11 -8 -20 -6 -20 3 0 10 9 16 20 6 11 8 20 6 20 -3
0 -10 -9 -16 -20z"/>
<path d="M3130 4160 c6 -11 13 -20 16 -20 2 0 0 9 -6 20 -6 11 -13 20 -16 20
-2 0 0 -9 6 -20z"/>
<path d="M3204 4165 c-13 -33 43 -83 61 -55 3 6 -3 10 -15 10 -20 0 -43 36
-33 53 2 4 2 7 -2 7 -3 0 -8 -7 -11 -15z"/>
<path d="M1800 4150 c-6 -11 -8 -20 -6 -20 3 0 10 9 16 20 6 11 8 20 6 20 -3
0 -10 -9 -16 -20z"/>
<path d="M3381 3913 c-1 -31 -3 -33 -35 -33 -19 0 -38 -5 -42 -12 -5 -8 6 -9
41 -5 27 4 50 8 51 10 1 1 -1 18 -6 37 l-8 35 -1 -32z"/>
<path d="M1721 3914 c0 -11 3 -14 6 -6 3 7 2 16 -1 19 -3 4 -6 -2 -5 -13z"/>
<path d="M1557 3893 c-12 -12 -7 -61 6 -66 18 -7 31 2 46 31 7 12 16 20 22 17
5 -4 5 -14 -2 -27 -9 -16 -8 -19 3 -16 18 6 22 36 8 53 -18 22 -28 18 -46 -16
-12 -23 -19 -28 -27 -20 -9 9 -8 16 1 31 11 19 3 28 -11 13z"/>
<path d="M3221 3884 c0 -11 3 -14 6 -6 3 7 2 16 -1 19 -3 4 -6 -2 -5 -13z"/>
<path d="M1713 3800 c0 -30 2 -43 4 -27 2 15 2 39 0 55 -2 15 -4 2 -4 -28z"/>
<path d="M3316 3794 c-23 -23 -19 -51 9 -70 36 -24 75 -6 75 34 0 15 -5 33
-12 40 -17 17 -54 15 -72 -4z m69 -34 c0 -19 -6 -26 -26 -28 -30 -4 -52 18
-43 42 5 12 16 16 38 14 26 -2 31 -7 31 -28z"/>
<path d="M1540 3760 c0 -5 11 -10 25 -10 18 0 25 -5 25 -20 0 -13 -7 -20 -20
-20 -11 0 -20 -4 -20 -10 0 -5 20 -10 45 -10 25 0 45 5 45 10 0 6 -9 10 -20
10 -13 0 -20 7 -20 20 0 13 7 20 20 20 11 0 20 5 20 10 0 6 -22 10 -50 10 -27
0 -50 -4 -50 -10z"/>
<path d="M3221 3694 c0 -11 3 -14 6 -6 3 7 2 16 -1 19 -3 4 -6 -2 -5 -13z"/>
<path d="M3306 3654 c-19 -18 -21 -55 -4 -72 7 -7 24 -12 38 -12 51 0 69 55
28 84 -28 20 -43 20 -62 0z m64 -19 c19 -23 4 -45 -30 -45 -32 0 -47 18 -36
45 7 19 50 19 66 0z"/>
<path d="M1563 3617 c19 -15 24 -57 6 -57 -5 0 -7 -5 -4 -10 4 -6 23 -1 48 15
65 38 61 46 -28 60 -36 6 -38 5 -22 -8z m58 -22 c-1 -15 -24 -12 -29 3 -3 9 2
13 12 10 10 -1 17 -7 17 -13z"/>
<path d="M3270 3521 c0 -6 7 -11 15 -11 16 0 19 -9 9 -33 -3 -9 -13 -13 -25
-10 -27 7 -24 -6 4 -16 49 -19 67 -22 67 -13 0 5 -9 12 -19 15 -14 3 -18 11
-14 26 4 16 11 19 29 15 13 -4 24 -2 24 4 0 5 -12 13 -27 16 -16 4 -36 9 -45
12 -10 3 -18 1 -18 -5z"/>
<path d="M1623 3497 c-45 -17 -54 -31 -14 -22 l34 7 -23 -31 c-12 -18 -20 -35
-17 -38 7 -6 79 16 92 29 7 7 -1 8 -22 3 -38 -8 -42 4 -13 30 38 34 22 43 -37
22z"/>
<path d="M3210 3379 c-9 -16 -8 -26 5 -45 30 -46 108 -20 89 30 -9 25 -22 19
-17 -8 6 -29 -19 -41 -47 -23 -25 15 -26 36 -2 53 16 12 16 13 0 14 -10 0 -22
-9 -28 -21z"/>
<path d="M1668 3369 c-39 -22 -7 -110 33 -89 10 6 16 17 13 25 -6 16 -26 21
-21 6 4 -16 -17 -14 -27 2 -7 11 -6 20 4 32 19 23 54 15 58 -12 4 -27 22 -31
22 -5 0 22 -30 52 -51 52 -8 0 -22 -5 -31 -11z"/>
<path d="M1875 3320 c10 -11 20 -20 23 -20 3 0 -3 9 -13 20 -10 11 -20 20 -23
20 -3 0 3 -9 13 -20z"/>
<path d="M3005 3258 l-60 -63 63 60 c34 33 62 61 62 62 0 8 -10 -1 -65 -59z"/>
<path d="M3146 3269 c-8 -12 -12 -28 -9 -35 7 -19 37 -18 53 1 8 10 17 12 23
6 12 -12 0 -31 -19 -31 -8 0 -14 -4 -14 -10 0 -17 26 -11 45 10 33 36 -1 65
-45 38 -25 -16 -41 -1 -17 16 19 14 22 26 8 26 -6 0 -17 -10 -25 -21z"/>
<path d="M1743 3241 c-29 -27 -36 -54 -7 -30 17 14 44 5 44 -15 0 -7 -7 -17
-16 -20 -8 -3 -12 -10 -9 -16 4 -6 22 4 45 22 21 18 36 36 33 41 -3 4 -11 3
-19 -4 -11 -9 -18 -9 -29 1 -14 12 -14 15 1 31 28 31 -6 23 -43 -10z"/>
<path d="M1935 3250 c10 -11 20 -20 23 -20 3 0 -3 9 -13 20 -10 11 -20 20 -23
20 -3 0 3 -9 13 -20z"/>
<path d="M1990 3206 c0 -2 8 -10 18 -17 15 -13 16 -12 3 4 -13 16 -21 21 -21
13z"/>
<path d="M1848 3136 c-36 -20 -53 -43 -25 -33 19 7 49 -13 43 -28 -3 -8 -1
-17 3 -20 11 -6 43 84 35 96 -7 12 -13 10 -56 -15z m42 -3 c-1 -19 -19 -35
-30 -28 -10 6 -9 11 5 22 22 15 25 16 25 6z"/>
<path d="M1946 3058 c-15 -21 -25 -42 -22 -45 3 -4 7 -4 9 -2 38 48 56 78 50
82 -4 3 -21 -13 -37 -35z"/>
<path d="M2950 3085 c-7 -8 -9 -22 -6 -31 5 -13 14 -15 41 -10 28 6 35 4 35
-9 0 -10 -9 -15 -27 -15 -21 0 -24 -3 -15 -12 19 -19 64 7 60 35 -3 19 -8 22
-42 19 -28 -2 -37 0 -33 10 2 7 12 12 21 12 9 -1 16 2 16 7 0 15 -37 10 -50
-6z"/>
<path d="M2598 3043 c7 -3 16 -2 19 1 4 3 -2 6 -13 5 -11 0 -14 -3 -6 -6z"/>
<path d="M2437 3033 c18 -2 50 -2 70 0 21 2 7 4 -32 4 -38 0 -55 -2 -38 -4z"/>
<path d="M2850 3022 c-30 -24 -18 -42 26 -42 24 0 34 -4 31 -12 -2 -7 -14 -13
-26 -12 -21 1 -25 -16 -4 -23 19 -7 57 33 49 52 -5 14 -14 16 -42 12 -25 -4
-34 -2 -31 6 2 7 13 13 25 15 12 2 20 8 17 13 -9 13 -20 11 -45 -9z"/>
<path d="M2132 2951 c-16 -50 -17 -47 19 -61 36 -15 44 -8 53 42 6 30 3 39
-13 47 -34 19 -47 12 -59 -28z m63 -2 c-8 -11 -16 -11 -34 0 -22 14 -4 33 20
21 11 -6 17 -15 14 -21z m-24 -19 c27 -15 24 -30 -6 -30 -18 0 -25 5 -25 20 0
23 4 24 31 10z"/>
<path d="M2738 2979 l-27 -10 17 -45 c18 -47 31 -53 72 -28 25 14 24 14 -12 8
-31 -5 -38 -3 -38 10 0 9 6 16 14 16 8 0 18 5 21 10 4 7 -2 9 -19 4 -20 -5
-26 -2 -26 10 0 9 6 16 14 16 8 0 18 5 21 10 7 12 -1 12 -37 -1z"/>
<path d="M2264 2915 c-9 -48 0 -65 35 -65 23 0 30 5 35 28 4 15 9 35 12 45 3
9 1 17 -5 17 -5 0 -13 -16 -17 -36 -7 -37 -30 -56 -44 -34 -4 6 -4 27 0 46 4
19 4 34 -1 34 -4 0 -11 -16 -15 -35z"/>
<path d="M2655 2918 l7 -33 -29 28 c-16 15 -33 27 -37 27 -11 0 4 -83 16 -95
7 -7 9 0 5 23 -8 39 -3 40 28 5 13 -16 26 -25 30 -21 10 9 -6 98 -17 98 -6 0
-7 -13 -3 -32z"/>
<path d="M2400 2910 c0 -13 10 -24 25 -30 14 -5 25 -14 25 -19 0 -16 -21 -24
-33 -12 -17 17 -31 13 -17 -5 20 -23 64 -14 68 14 3 18 -3 25 -27 33 -36 13
-31 34 6 24 16 -4 22 -2 18 5 -3 5 -19 10 -36 10 -22 0 -29 -5 -29 -20z"/>
<path d="M2521 2903 c1 -16 5 -39 9 -53 6 -20 8 -14 9 28 1 28 -3 52 -9 52 -5
0 -10 -12 -9 -27z"/>
<path d="M4348 4500 c-47 -25 -91 -79 -131 -160 -31 -62 -32 -69 -31 -185 0
-106 3 -127 27 -186 15 -36 27 -71 27 -77 0 -11 -66 -14 -308 -16 -18 0 -25
-9 -37 -50 -8 -27 -15 -76 -15 -108 0 -52 3 -60 24 -70 37 -16 103 4 230 72
61 32 146 70 188 84 70 24 91 26 242 26 l165 0 7 34 c3 19 3 48 -1 65 l-7 31
-117 -6 c-148 -9 -155 -4 -149 97 4 80 16 96 94 133 38 18 55 33 60 51 9 36
-17 69 -64 83 -52 16 -59 26 -76 106 -8 38 -18 72 -23 77 -19 19 -68 19 -105
-1z"/>
<path d="M5412 4414 l-51 -105 47 -42 c26 -23 49 -43 51 -44 2 -1 -10 -24 -27
-50 -17 -26 -42 -74 -56 -105 -26 -60 -41 -72 -108 -83 l-37 -6 15 -44 15 -43
34 14 c48 20 55 18 55 -17 0 -17 5 -40 11 -51 10 -19 17 -20 108 -14 120 8
134 1 106 -51 -15 -28 -27 -39 -47 -41 -34 -4 -35 -13 -4 -49 21 -24 27 -26
52 -18 39 14 72 67 80 127 7 51 5 49 74 74 11 4 7 12 -18 32 -28 24 -32 33
-32 74 l0 47 43 5 c23 3 53 7 67 8 19 2 26 10 28 31 l3 27 -70 0 -71 0 0 58
c0 80 -6 86 -76 80 -33 -3 -67 -9 -76 -13 -35 -15 -16 11 37 50 30 22 54 43
55 48 0 4 -12 7 -27 7 -47 0 -55 12 -33 45 39 58 18 106 -61 139 l-36 15 -51
-105z m113 -244 c22 -14 39 -18 63 -14 32 6 32 6 32 -34 0 -57 -18 -68 -70
-42 -44 22 -60 20 -60 -10 0 -11 -9 -24 -19 -30 -25 -13 -61 -13 -61 0 0 16
69 150 78 150 4 0 21 -9 37 -20z m93 -197 c-3 -44 -6 -50 -38 -65 -24 -12 -59
-18 -109 -18 l-73 0 7 48 c4 26 8 48 10 50 10 10 58 -15 67 -34 16 -35 45 -30
62 10 14 34 39 55 64 56 9 0 12 -13 10 -47z"/>
<path d="M7460 4476 c0 -35 -1 -36 -39 -36 -33 0 -40 4 -43 23 -2 14 -11 23
-27 25 l-24 4 7 -119 c3 -65 9 -152 13 -193 3 -41 3 -72 -1 -69 -3 3 -22 62
-42 130 -34 115 -55 159 -75 159 -9 0 -7 -14 22 -164 23 -120 24 -150 3 -167
-14 -11 -21 -10 -46 4 -38 22 -61 22 -82 -2 -15 -17 -46 -99 -46 -123 0 -17
67 -8 85 12 30 33 76 57 181 95 54 20 129 47 167 61 63 23 75 24 182 18 106
-6 114 -8 117 -28 3 -18 9 -20 38 -17 52 5 70 18 70 50 0 33 -29 63 -62 64
-13 1 -56 -2 -95 -7 l-72 -7 16 38 c46 110 57 227 23 258 -17 15 -31 17 -87
12 -90 -9 -99 -21 -35 -49 44 -20 52 -27 52 -50 0 -23 -5 -28 -36 -34 -47 -9
-44 -40 4 -38 34 2 38 -5 22 -37 -8 -14 -21 -19 -56 -19 -28 0 -43 -4 -39 -10
3 -5 14 -10 24 -10 26 0 38 -17 33 -49 -4 -28 -9 -30 -92 -51 -49 -12 -94 -19
-99 -15 -16 9 -13 36 5 56 14 15 18 16 42 3 32 -16 68 -18 77 -4 4 6 -9 30
-29 54 l-35 43 34 33 35 34 -35 21 -35 21 31 42 c35 47 32 58 -19 68 -31 6
-32 6 -32 -30z m10 -145 c0 -35 -20 -53 -55 -49 l-25 3 26 38 c33 45 54 48 54
8z"/>
<path d="M6310 4495 c0 -4 25 -36 56 -71 31 -36 55 -66 53 -68 -2 -2 -58 -11
-124 -20 -167 -23 -171 -24 -185 -51 -18 -34 7 -70 61 -87 36 -10 46 -10 70 5
28 15 29 15 29 -3 0 -40 11 -50 55 -50 36 0 48 5 71 33 l27 32 -61 8 c-36 5
-62 14 -62 20 0 7 55 27 123 46 67 19 128 36 135 39 25 9 11 -32 -31 -92 -59
-84 -66 -98 -24 -54 20 21 66 51 106 69 65 29 69 33 61 55 -9 24 -9 24 54 24
57 0 65 3 80 25 13 19 14 29 4 49 -6 14 -20 28 -30 32 -22 7 -88 -3 -138 -21
-19 -7 -54 -16 -78 -20 l-42 -7 6 29 c4 20 0 36 -14 53 -18 23 -29 25 -111 28
-50 2 -91 1 -91 -3z"/>
<path d="M8523 4488 c-26 -34 -21 -46 37 -92 102 -80 140 -83 140 -9 0 38 -5
50 -34 79 -30 30 -41 34 -84 34 -28 0 -54 -5 -59 -12z"/>
<path d="M8240 4426 c-20 -8 -59 -25 -88 -40 -46 -23 -51 -29 -42 -46 9 -18
40 -40 55 -40 3 0 25 18 49 40 l43 40 7 -163 c6 -157 6 -162 -15 -178 -21 -15
-21 -17 -4 -50 10 -19 19 -35 20 -37 8 -9 47 22 60 48 19 37 19 133 0 170 -28
54 -30 114 -6 181 32 86 9 107 -79 75z"/>
<path d="M5140 4400 c-14 -26 5 -108 32 -137 22 -23 60 -29 106 -17 19 6 22
13 22 59 0 46 -4 58 -31 84 -25 25 -39 31 -74 31 -34 0 -47 -5 -55 -20z"/>
<path d="M8690 4320 c-102 -38 -192 -69 -201 -70 -9 0 -22 7 -29 15 -22 27
-37 16 -74 -50 -20 -36 -36 -67 -36 -69 0 -2 12 -6 27 -9 20 -4 48 8 115 48
109 66 162 85 258 92 l75 6 -35 -38 -35 -38 33 7 c50 9 102 36 118 62 9 13 14
39 12 66 -2 35 -7 43 -23 45 -11 1 -103 -29 -205 -67z"/>
<path d="M8136 4199 c-13 -81 -26 -274 -26 -383 0 -140 15 -181 61 -169 28 8
32 41 19 159 -8 70 -10 148 -5 223 10 151 10 151 -19 179 l-25 25 -5 -34z"/>
<path d="M5058 4149 c-25 -14 -22 -34 12 -94 29 -51 30 -56 22 -125 -10 -83
-1 -158 25 -203 21 -37 91 -74 148 -79 37 -3 40 -1 49 30 12 43 -6 68 -109
148 -43 33 -81 69 -85 80 -11 28 6 63 32 68 87 18 81 13 74 62 -8 60 -38 101
-84 114 -46 12 -62 12 -84 -1z"/>
<path d="M6545 4140 c-80 -22 -151 -46 -250 -88 -50 -20 -74 -36 -83 -56 -15
-31 -28 -255 -18 -309 6 -32 10 -37 36 -37 24 0 30 5 35 31 7 30 0 195 -11
271 -5 36 -5 36 51 57 31 12 58 21 61 21 2 0 -9 -27 -26 -60 -17 -33 -26 -60
-21 -60 5 0 24 32 42 70 30 66 34 70 65 70 32 0 34 -2 34 -32 0 -49 12 -60 56
-56 34 3 39 7 42 29 3 23 -1 27 -32 33 -43 8 -46 27 -9 56 37 29 64 22 85 -20
15 -29 18 -60 17 -175 -1 -175 -5 -189 -47 -193 l-32 -3 20 -30 c19 -26 27
-29 74 -29 63 0 80 15 95 80 23 99 6 311 -31 388 -12 25 -31 47 -45 53 -30 11
-23 12 -108 -11z"/>
<path d="M8596 4150 c-28 -9 -66 -37 -66 -50 0 -4 18 -12 39 -19 33 -9 47 -9
79 4 49 20 62 52 26 66 -29 10 -39 10 -78 -1z"/>
<path d="M7570 4066 c-25 -7 -91 -28 -147 -46 l-103 -34 27 -22 28 -22 32 28
c17 15 47 33 66 39 50 17 137 29 137 20 0 -4 -22 -27 -50 -50 -32 -27 -50 -50
-50 -64 0 -32 -14 -39 -116 -64 -80 -20 -91 -25 -87 -42 7 -26 45 -24 107 5
28 14 68 28 88 31 36 7 37 6 44 -31 4 -20 3 -53 -2 -73 -7 -29 -17 -40 -51
-56 -46 -22 -52 -35 -26 -60 30 -30 112 1 135 51 9 19 9 39 0 83 -18 87 -16
101 13 101 15 0 39 -7 55 -15 27 -14 30 -14 40 4 5 11 10 29 10 41 0 19 -4 21
-37 16 -131 -18 -133 -18 -133 1 1 29 23 51 74 73 46 19 47 21 44 57 -3 32 -7
38 -28 40 -14 1 -45 -4 -70 -11z"/>
<path d="M8669 4043 c-35 -20 -102 -48 -149 -63 -68 -21 -85 -30 -85 -46 0
-16 8 -20 48 -22 31 -2 55 2 69 12 12 9 31 16 42 16 18 0 18 -2 -5 -26 -13
-15 -60 -54 -104 -87 -95 -71 -133 -105 -147 -130 -9 -17 -7 -17 14 -6 68 36
317 245 372 312 62 76 39 92 -55 40z"/>
<path d="M8988 3882 l5 -99 -64 -24 c-74 -28 -204 -34 -232 -11 -9 8 -22 40
-28 73 -7 38 -17 59 -25 59 -11 0 -14 -19 -14 -83 0 -74 3 -86 23 -105 31 -29
67 -41 145 -48 89 -8 170 9 229 50 47 32 48 34 51 89 3 52 0 61 -44 126 -26
39 -48 71 -49 71 -1 0 0 -44 3 -98z"/>
<path d="M6432 3906 c-70 -23 -92 -42 -92 -80 0 -19 8 -40 18 -49 26 -24 32
-21 32 16 0 41 8 53 43 66 46 18 49 13 22 -40 l-26 -50 48 3 c42 3 48 6 51 27
2 15 -3 28 -13 33 -15 9 -15 11 0 22 10 7 15 22 13 37 -4 29 -34 34 -96 15z"/>
<path d="M3900 3480 c-12 -12 -20 -33 -20 -55 0 -41 18 -55 101 -79 69 -19 86
-37 71 -71 -23 -50 -123 -42 -147 13 -5 12 -15 22 -22 22 -21 0 -15 -39 11
-65 62 -62 196 -28 196 51 0 37 -32 63 -105 87 -62 19 -70 25 -70 47 0 52 86
62 124 14 10 -13 24 -24 30 -24 19 0 12 30 -14 55 -32 33 -124 36 -155 5z"/>
<path d="M4150 3360 c0 -118 2 -140 15 -140 12 0 15 15 15 74 0 82 13 106 55
106 34 0 45 -27 45 -109 0 -56 3 -71 15 -71 22 0 22 162 -1 184 -22 22 -77 24
-101 4 -10 -8 -13 1 -13 41 0 39 -4 51 -15 51 -13 0 -15 -22 -15 -140z"/>
<path d="M5050 3360 c0 -113 3 -140 14 -140 10 0 15 20 18 76 4 79 18 104 59
104 36 0 49 -28 49 -106 0 -59 3 -74 15 -74 22 0 21 147 -1 178 -17 24 -70 30
-105 12 -18 -10 -19 -7 -19 40 0 38 -4 50 -15 50 -13 0 -15 -22 -15 -140z"/>
<path d="M5510 3480 c0 -11 7 -20 15 -20 8 0 15 9 15 20 0 11 -7 20 -15 20 -8
0 -15 -9 -15 -20z"/>
<path d="M5920 3360 l0 -140 79 0 c90 0 117 14 127 67 5 26 1 37 -20 58 -23
23 -25 28 -11 41 16 16 20 61 7 80 -15 23 -53 34 -116 34 l-66 0 0 -140z m148
98 c7 -7 12 -21 12 -33 0 -33 -20 -45 -77 -45 l-53 0 0 45 0 45 53 0 c29 0 58
-5 65 -12z m3 -118 c22 -12 26 -59 7 -78 -7 -7 -38 -12 -70 -12 l-58 0 0 50 0
50 51 0 c28 0 59 -5 70 -10z"/>
<path d="M6620 3479 c0 -24 23 -21 28 4 2 10 -3 17 -12 17 -10 0 -16 -9 -16
-21z"/>
<path d="M7910 3480 c-12 -12 -20 -33 -20 -55 0 -41 18 -55 102 -79 58 -17 83
-41 72 -69 -6 -18 -47 -37 -78 -37 -28 0 -76 35 -76 56 0 8 -7 14 -15 14 -23
0 -18 -38 9 -65 63 -63 196 -28 196 53 0 35 -40 68 -101 82 -62 14 -79 25 -79
50 0 49 89 61 124 17 12 -15 27 -27 34 -27 20 0 13 29 -13 55 -32 33 -124 36
-155 5z"/>
<path d="M8360 3360 c0 -118 2 -140 15 -140 12 0 15 15 15 73 0 79 15 107 56
107 35 0 44 -20 44 -102 0 -63 3 -78 15 -78 12 0 15 17 15 89 0 100 -7 113
-65 113 -20 0 -42 -6 -50 -12 -13 -11 -15 -5 -15 39 0 39 -4 51 -15 51 -13 0
-15 -22 -15 -140z"/>
<path d="M9040 3360 c0 -118 2 -140 15 -140 13 0 15 22 15 140 0 118 -2 140
-15 140 -13 0 -15 -22 -15 -140z"/>
<path d="M4430 3422 c-29 -4 -60 -29 -60 -49 0 -20 23 -16 38 7 15 25 64 27
87 4 25 -26 13 -38 -50 -51 -76 -15 -101 -45 -75 -93 14 -27 61 -34 104 -16
20 8 36 11 36 5 0 -5 7 -9 15 -9 21 0 21 146 0 177 -15 21 -51 31 -95 25z m72
-133 c-4 -30 -28 -49 -63 -49 -31 0 -52 21 -43 43 5 15 76 38 99 32 6 -1 9
-13 7 -26z"/>
<path d="M4675 3422 c-11 -2 -26 -9 -32 -14 -9 -7 -13 -7 -13 1 0 6 -7 11 -15
11 -12 0 -15 -18 -15 -100 0 -82 3 -100 15 -100 12 0 15 14 15 68 0 76 17 112
54 112 37 0 46 -19 46 -102 0 -63 3 -78 15 -78 12 0 15 17 15 89 0 59 -4 92
-12 98 -17 14 -49 20 -73 15z"/>
<path d="M4874 3419 c-38 -11 -59 -49 -58 -106 2 -74 64 -115 125 -83 16 9 19
7 19 -14 0 -13 -7 -32 -16 -40 -20 -20 -68 -21 -84 -1 -17 20 -44 20 -36 -1 3
-9 6 -17 6 -19 0 -2 16 -9 35 -15 42 -14 100 1 115 30 6 10 10 71 10 134 0 96
-3 116 -15 116 -8 0 -15 -5 -15 -11 0 -8 -4 -8 -12 -2 -22 17 -42 20 -74 12z
m70 -41 c34 -47 8 -138 -38 -138 -32 0 -61 37 -61 78 0 71 64 110 99 60z"/>
<path d="M5340 3422 c-29 -4 -60 -29 -60 -49 0 -20 23 -16 38 7 23 37 92 21
92 -21 0 -14 -12 -19 -47 -24 -66 -10 -93 -29 -93 -65 0 -53 57 -75 115 -44
19 10 31 11 33 5 2 -6 9 -11 16 -11 15 0 10 167 -6 186 -10 14 -52 21 -88 16z
m70 -126 c0 -34 -25 -56 -65 -56 -25 0 -35 5 -40 21 -11 32 10 44 98 58 4 0 7
-10 7 -23z"/>
<path d="M6453 3422 c-22 -3 -53 -37 -53 -57 0 -23 20 -38 71 -55 45 -14 54
-21 54 -41 0 -20 -5 -24 -37 -27 -29 -2 -40 2 -50 17 -14 24 -38 28 -38 8 0
-42 80 -68 129 -42 29 14 32 20 29 53 -3 35 -6 38 -58 55 -67 22 -77 31 -60
52 16 19 69 20 76 0 4 -8 15 -15 26 -15 19 0 19 2 6 22 -16 23 -56 36 -95 30z"/>
<path d="M6995 3422 c-85 -17 -99 -165 -18 -199 45 -18 87 -9 114 25 19 24 19
27 4 30 -9 2 -23 -6 -31 -17 -28 -40 -104 -16 -104 32 0 14 12 17 75 17 69 0
75 2 75 20 0 18 -26 80 -33 80 -1 0 -16 4 -32 8 -17 5 -39 6 -50 4z m65 -42
c32 -32 24 -40 -40 -40 -64 0 -73 9 -43 42 21 24 58 23 83 -2z"/>
<path d="M7202 3422 c-12 -2 -30 -14 -38 -28 -15 -22 -15 -26 0 -48 10 -15 34
-30 63 -38 41 -12 48 -17 48 -38 0 -22 -5 -25 -37 -28 -29 -2 -40 2 -50 17
-14 24 -38 28 -38 8 0 -22 35 -47 71 -53 61 -9 106 34 88 83 -6 16 -24 27 -63
38 -62 18 -74 29 -56 50 16 19 64 19 80 0 7 -8 19 -15 27 -15 14 0 14 3 1 22
-16 23 -56 36 -96 30z"/>
<path d="M7403 3418 c-23 -6 -35 -16 -39 -35 -10 -36 5 -54 59 -72 60 -21 75
-35 57 -56 -19 -22 -77 -20 -90 5 -15 29 -42 27 -31 -2 25 -68 161 -53 161 17
0 28 -13 39 -75 62 -37 14 -50 24 -50 38 0 26 56 33 75 11 13 -16 40 -22 40
-8 -1 32 -58 53 -107 40z"/>
<path d="M8215 3422 c-54 -11 -83 -75 -65 -143 11 -38 48 -69 84 -69 45 0 102
59 74 76 -7 4 -14 2 -16 -4 -13 -40 -68 -55 -96 -26 -23 23 -21 106 2 127 25
23 58 21 76 -4 8 -11 22 -19 31 -17 15 3 15 6 -4 29 -21 27 -51 38 -86 31z"/>
<path d="M8645 3422 c-56 -11 -87 -81 -65 -147 22 -68 115 -85 160 -28 26 33
28 112 3 142 -20 23 -67 39 -98 33z m65 -42 c24 -24 27 -86 4 -118 -36 -51
-109 -13 -109 58 0 70 61 104 105 60z"/>
<path d="M8863 3418 c-44 -11 -67 -56 -60 -115 6 -53 28 -80 72 -89 87 -16
145 80 100 166 -9 17 -17 30 -18 30 -1 0 -16 4 -32 8 -17 5 -45 5 -62 0z m77
-45 c17 -22 21 -37 17 -68 -6 -44 -28 -65 -68 -65 -30 0 -44 14 -54 53 -22 84
55 143 105 80z"/>
<path d="M5510 3320 c0 -82 3 -100 15 -100 12 0 15 18 15 100 0 82 -3 100 -15
100 -12 0 -15 -18 -15 -100z"/>
<path d="M6180 3340 c0 -73 3 -83 25 -105 28 -29 45 -31 85 -10 17 9 30 11 30
5 0 -5 7 -10 15 -10 12 0 15 18 15 100 0 82 -3 100 -15 100 -12 0 -15 -14 -15
-62 0 -79 -16 -112 -55 -116 -42 -5 -55 19 -55 105 0 58 -3 73 -15 73 -12 0
-15 -16 -15 -80z"/>
<path d="M6620 3320 c0 -82 3 -100 15 -100 12 0 15 18 15 100 0 82 -3 100 -15
100 -12 0 -15 -18 -15 -100z"/>
<path d="M6710 3320 c0 -82 3 -100 15 -100 12 0 15 15 15 73 0 79 15 107 56
107 35 0 44 -20 44 -102 0 -63 3 -78 15 -78 22 0 22 162 -1 184 -18 19 -85 21
-103 4 -11 -10 -14 -10 -18 0 -14 36 -23 1 -23 -88z"/>
</g>
</svg>
